# Blender v2.79 (sub 0) OBJ File: 'space cadet.blend'
# www.blender.org
mtllib KRYLYAA.mtl
o Plane.001
v -3.649610 1.588592 1.065728
v -3.499293 1.297398 1.264949
v -3.721026 1.143237 1.341271
v -4.080518 1.259574 1.318293
v -5.522297 1.733714 1.005816
v -5.371492 1.488997 1.115310
v -4.926544 1.206042 1.326403
v -4.348614 0.777787 1.533859
v -3.963988 0.510128 1.553287
v -3.377528 0.578954 1.585858
v -2.363790 0.938383 1.361671
v -1.794086 1.007210 1.330876
v -2.246498 1.137216 1.272707
v -3.146397 1.271906 1.246634
v -3.169048 1.364241 1.149947
v -2.733044 1.343393 1.153486
v -2.458162 1.388152 1.122740
v -3.313104 1.527064 1.097423
v -2.760942 1.440702 1.063553
v -3.518202 1.388257 1.128912
v -2.850603 0.778886 1.501684
v -4.748547 1.499757 1.194985
v -5.234861 1.648547 1.043921
v -3.582918 1.548099 1.097293
v -3.469299 1.321719 1.306296
v -3.806655 1.121430 1.569657
v -4.093975 1.260793 1.402686
v -5.469422 1.730168 1.055636
v -5.363786 1.594634 1.138484
v -4.873222 1.329699 1.351463
v -4.269838 1.062052 1.578108
v -3.871105 0.873792 1.707694
v -3.365473 0.908823 1.637703
v -2.310256 0.997307 1.393236
v -1.993445 1.025458 1.362441
v -2.253658 1.109625 1.304272
v -3.196282 1.311568 1.319506
v -3.200393 1.411626 1.167396
v -2.727759 1.386736 1.203914
v -2.633217 1.399637 1.169960
v -3.301507 1.478256 1.130515
v -2.751526 1.429080 1.171679
v -3.461724 1.401478 1.184781
v -2.852285 0.947449 1.547973
v -4.755232 1.509491 1.256780
v -5.234382 1.666795 1.075486
v -3.649610 1.588592 0.005608
v -3.499293 1.297398 -0.193613
v -3.721026 1.143237 -0.269935
v -4.080518 1.259574 -0.246957
v -5.522297 1.733714 0.065521
v -5.371492 1.488997 -0.043973
v -4.926544 1.206042 -0.255067
v -4.348614 0.777787 -0.462523
v -3.963988 0.510128 -0.481950
v -3.377528 0.578954 -0.514523
v -2.363790 0.938383 -0.290335
v -1.794086 1.007210 -0.259540
v -2.246498 1.137216 -0.201371
v -3.146397 1.271906 -0.175297
v -3.169048 1.364241 -0.078611
v -2.733044 1.343393 -0.082150
v -2.458162 1.388152 -0.051404
v -3.313104 1.527064 -0.026087
v -2.760942 1.440702 0.007783
v -3.518202 1.388257 -0.057576
v -2.850603 0.778886 -0.430348
v -4.748547 1.499757 -0.123650
v -5.234861 1.648547 0.027414
v -3.582918 1.548099 -0.025957
v -3.469299 1.321719 -0.234960
v -3.806655 1.121430 -0.498322
v -4.093975 1.260793 -0.331350
v -5.469422 1.730168 0.015700
v -5.363786 1.594634 -0.067148
v -4.873222 1.329699 -0.280127
v -4.269838 1.062052 -0.506772
v -3.871105 0.873792 -0.636358
v -3.365473 0.908823 -0.566367
v -2.310256 0.997307 -0.321900
v -1.993445 1.025458 -0.291105
v -2.253658 1.109625 -0.232936
v -3.196282 1.311568 -0.248170
v -3.200393 1.411626 -0.096059
v -2.727759 1.386736 -0.132578
v -2.633217 1.399637 -0.098624
v -3.301507 1.478256 -0.059179
v -2.751526 1.429080 -0.100344
v -3.461724 1.401478 -0.113445
v -2.852285 0.947449 -0.476637
v -4.755232 1.509491 -0.185443
v -5.234382 1.666795 -0.004150
vn -0.1076 -0.3126 -0.9438
vn 0.0520 -0.3704 -0.9274
vn -0.0187 -0.4346 -0.9005
vn -0.0533 -0.7892 -0.6118
vn 0.0177 -0.4168 -0.9088
vn 0.0394 -0.2761 -0.9603
vn -0.0825 -0.5201 -0.8501
vn 0.0272 -0.6743 -0.7380
vn -0.0647 -0.4576 -0.8868
vn 0.0000 -0.4084 -0.9128
vn -0.0617 0.5956 0.8009
vn 0.1198 -0.4736 -0.8726
vn 0.1552 0.5784 0.8008
vn 0.0554 0.6045 0.7946
vn 0.0043 0.8357 0.5492
vn -0.0020 0.5819 0.8133
vn 0.0335 0.5293 0.8478
vn -0.0281 0.5122 0.8584
vn 0.1740 0.6565 0.7340
vn 0.1515 0.6097 0.7780
vn 0.0222 0.6139 0.7891
vn 0.0834 0.5663 0.8200
vn -0.0761 0.5816 0.8099
vn 0.1435 0.7965 0.5873
vn -0.6900 -0.1029 0.7165
vn 0.1798 0.9836 -0.0155
vn 0.2047 -0.1932 0.9596
vn -0.4453 -0.0693 0.8927
vn 0.8299 0.4810 0.2827
vn -0.3652 -0.0398 0.9301
vn -0.5886 -0.0792 0.8045
vn -0.0655 -0.6098 0.7899
vn -0.2977 -0.2069 0.9320
vn -0.7099 0.5724 0.4104
vn 0.2283 -0.6241 0.7473
vn 0.3490 0.9369 -0.0221
vn 0.0606 -0.2929 0.9542
vn -0.5854 0.8005 -0.1282
vn 0.1106 0.9196 0.3770
vn 0.3248 -0.3717 0.8697
vn 0.3209 0.9330 0.1631
vn 0.0474 0.6127 0.7889
vn 0.3685 0.8969 -0.2443
vn 0.1137 -0.4914 0.8635
vn 0.2919 0.8893 -0.3520
vn 0.1648 0.9704 0.1766
vn -0.1076 -0.3126 0.9438
vn 0.0520 -0.3704 0.9274
vn -0.0187 -0.4346 0.9005
vn -0.0533 -0.7892 0.6118
vn 0.0177 -0.4168 0.9088
vn 0.0394 -0.2761 0.9603
vn -0.0825 -0.5201 0.8501
vn 0.0272 -0.6743 0.7380
vn -0.0647 -0.4576 0.8868
vn 0.0000 -0.4084 0.9128
vn -0.0617 0.5956 -0.8009
vn 0.1198 -0.4736 0.8726
vn 0.1552 0.5784 -0.8008
vn 0.0554 0.6045 -0.7946
vn 0.0043 0.8357 -0.5492
vn -0.0020 0.5819 -0.8133
vn 0.0335 0.5293 -0.8478
vn -0.0281 0.5122 -0.8584
vn 0.1740 0.6565 -0.7340
vn 0.1515 0.6097 -0.7780
vn 0.0222 0.6139 -0.7891
vn 0.0834 0.5663 -0.8200
vn -0.0761 0.5816 -0.8099
vn 0.1435 0.7965 -0.5873
vn -0.6900 -0.1029 -0.7165
vn 0.1798 0.9836 0.0155
vn 0.2047 -0.1932 -0.9596
vn -0.4453 -0.0693 -0.8927
vn 0.8299 0.4810 -0.2827
vn -0.3652 -0.0398 -0.9301
vn -0.5886 -0.0792 -0.8045
vn -0.0655 -0.6097 -0.7899
vn -0.2977 -0.2069 -0.9320
vn -0.7099 0.5724 -0.4104
vn 0.2283 -0.6241 -0.7473
vn 0.3490 0.9369 0.0221
vn 0.0606 -0.2929 -0.9542
vn -0.5854 0.8005 0.1282
vn 0.1106 0.9196 -0.3770
vn 0.3248 -0.3717 -0.8697
vn 0.3209 0.9330 -0.1631
vn 0.0474 0.6127 -0.7889
vn 0.3685 0.8969 0.2443
vn 0.1137 -0.4914 -0.8635
vn 0.2919 0.8893 0.3520
vn 0.1648 0.9704 -0.1766
usemtl None
s off
f 3//1 9//1 8//1 4//1
f 2//2 10//2 9//2 3//2
f 14//3 21//3 10//3 2//3
f 20//4 15//4 14//4 2//4
f 7//5 22//5 4//5 8//5
f 18//6 15//6 20//6 1//6
f 15//7 18//7 19//7 16//7
f 17//8 16//8 19//8
f 21//9 14//9 13//9 11//9
f 12//10 11//10 13//10
f 5//10 23//10 6//10
f 26//11 27//11 31//11 32//11
f 23//12 22//12 7//12 6//12
f 25//13 26//13 32//13 33//13
f 37//14 25//14 33//14 44//14
f 43//15 25//15 37//15 38//15
f 30//16 31//16 27//16 45//16
f 41//17 24//17 43//17 38//17
f 38//18 39//18 42//18 41//18
f 40//19 42//19 39//19
f 44//20 34//20 36//20 37//20
f 35//21 36//21 34//21
f 28//22 29//22 46//22
f 46//23 29//23 30//23 45//23
f 12//24 13//24 36//24 35//24
f 5//25 6//25 29//25 28//25
f 13//26 14//26 37//26 36//26
f 10//27 21//27 44//27 33//27
f 6//28 7//28 30//28 29//28
f 14//29 15//29 38//29 37//29
f 7//30 8//30 31//30 30//30
f 1//31 20//31 43//31 24//31
f 15//32 16//32 39//32 38//32
f 8//33 9//33 32//33 31//33
f 20//34 2//34 25//34 43//34
f 16//35 17//35 40//35 39//35
f 4//36 22//36 45//36 27//36
f 9//37 10//37 33//37 32//37
f 2//38 3//38 26//38 25//38
f 19//39 18//39 41//39 42//39
f 21//40 11//40 34//40 44//40
f 3//41 4//41 27//41 26//41
f 18//42 1//42 24//42 41//42
f 22//43 23//43 46//43 45//43
f 11//44 12//44 35//44 34//44
f 23//45 5//45 28//45 46//45
f 17//46 19//46 42//46 40//46
f 49//47 50//47 54//47 55//47
f 48//48 49//48 55//48 56//48
f 60//49 48//49 56//49 67//49
f 66//50 48//50 60//50 61//50
f 53//51 54//51 50//51 68//51
f 64//52 47//52 66//52 61//52
f 61//53 62//53 65//53 64//53
f 63//54 65//54 62//54
f 67//55 57//55 59//55 60//55
f 58//56 59//56 57//56
f 51//56 52//56 69//56
f 72//57 78//57 77//57 73//57
f 69//58 52//58 53//58 68//58
f 71//59 79//59 78//59 72//59
f 83//60 90//60 79//60 71//60
f 89//61 84//61 83//61 71//61
f 76//62 91//62 73//62 77//62
f 87//63 84//63 89//63 70//63
f 84//64 87//64 88//64 85//64
f 86//65 85//65 88//65
f 90//66 83//66 82//66 80//66
f 81//67 80//67 82//67
f 74//68 92//68 75//68
f 92//69 91//69 76//69 75//69
f 58//70 81//70 82//70 59//70
f 51//71 74//71 75//71 52//71
f 59//72 82//72 83//72 60//72
f 56//73 79//73 90//73 67//73
f 52//74 75//74 76//74 53//74
f 60//75 83//75 84//75 61//75
f 53//76 76//76 77//76 54//76
f 47//77 70//77 89//77 66//77
f 61//78 84//78 85//78 62//78
f 54//79 77//79 78//79 55//79
f 66//80 89//80 71//80 48//80
f 62//81 85//81 86//81 63//81
f 50//82 73//82 91//82 68//82
f 55//83 78//83 79//83 56//83
f 48//84 71//84 72//84 49//84
f 65//85 88//85 87//85 64//85
f 67//86 90//86 80//86 57//86
f 49//87 72//87 73//87 50//87
f 64//88 87//88 70//88 47//88
f 68//89 91//89 92//89 69//89
f 57//90 80//90 81//90 58//90
f 69//91 92//91 74//91 51//91
f 63//92 86//92 88//92 65//92
