# Blender v2.79 (sub 0) OBJ File: 'space cadet.blend'
# www.blender.org
mtllib NEON1.mtl
o NEON_Torus.001
v -4.009825 1.317353 0.324583
v -4.020508 1.474235 0.324582
v -4.052378 1.628432 0.324582
v -4.104886 1.777307 0.324582
v -4.177135 1.918312 0.324582
v -4.267890 2.049034 0.324582
v -4.375597 2.167236 0.324582
v -4.498413 2.270897 0.324582
v -4.634237 2.358243 0.324582
v -4.780744 2.427779 0.324582
v -4.935429 2.478315 0.324582
v -5.095645 2.508987 0.324582
v -5.258649 2.519269 0.324582
v -5.421653 2.508987 0.324582
v -5.581868 2.478316 0.324582
v -5.736554 2.427779 0.324582
v -5.883061 2.358243 0.324582
v -6.018885 2.270897 0.324582
v -6.141701 2.167236 0.324582
v -6.249408 2.049034 0.324582
v -6.340162 1.918312 0.324582
v -6.412412 1.777307 0.324582
v -6.464921 1.628432 0.324582
v -6.496789 1.474235 0.324582
v -6.507473 1.317353 0.324583
v -6.496789 1.160472 0.324583
v -6.464921 1.006275 0.324583
v -6.412412 0.857400 0.324583
v -6.340163 0.716396 0.324583
v -6.249408 0.585673 0.324583
v -6.141701 0.467470 0.324583
v -6.018886 0.363809 0.324583
v -5.883061 0.276463 0.324583
v -5.736554 0.206927 0.324583
v -5.581869 0.156391 0.324583
v -5.421654 0.125719 0.324583
v -5.258649 0.115437 0.324583
v -5.095645 0.125719 0.324583
v -4.935430 0.156391 0.324583
v -4.780744 0.206928 0.324583
v -4.634237 0.276463 0.324583
v -4.498413 0.363809 0.324583
v -4.375597 0.467470 0.324583
v -4.267890 0.585673 0.324583
v -4.177135 0.716395 0.324583
v -4.104886 0.857399 0.324583
v -4.052377 1.006275 0.324583
v -4.020508 1.160472 0.324583
v -6.513169 1.317353 0.689957
v -4.004128 1.317353 0.689957
v -4.494946 0.359460 0.689957
v -6.253927 0.582336 0.689957
v -4.371570 2.171112 0.689957
v -5.094901 0.120285 0.689957
v -5.258649 2.524752 0.689956
v -4.263371 2.052371 0.689957
v -5.258649 0.109955 0.689957
v -4.263371 0.582336 0.689957
v -6.022352 2.275246 0.689956
v -6.502436 1.159756 0.689957
v -4.014862 1.474950 0.689957
v -4.933955 2.483610 0.689956
v -4.494946 2.275246 0.689956
v -5.583343 0.151096 0.689957
v -4.172203 0.713654 0.689957
v -4.631389 0.271716 0.689957
v -5.094901 2.514423 0.689956
v -4.778565 0.201864 0.689957
v -6.417675 1.779404 0.689957
v -5.422398 0.120285 0.689957
v -6.145728 0.463594 0.689957
v -5.885909 2.362991 0.689956
v -6.470422 1.004856 0.689957
v -4.046876 1.629850 0.689957
v -6.417675 0.855302 0.689957
v -4.099623 1.779404 0.689957
v -4.099624 0.855302 0.689957
v -5.738733 0.201863 0.689957
v -6.345095 1.921052 0.689957
v -4.046875 1.004856 0.689957
v -6.022352 0.359460 0.689957
v -5.738733 2.432844 0.689956
v -6.470422 1.629850 0.689957
v -4.933956 0.151096 0.689957
v -6.345095 0.713655 0.689957
v -4.631389 2.362991 0.689956
v -4.172203 1.921052 0.689957
v -5.422397 2.514423 0.689956
v -4.371570 0.463593 0.689957
v -5.885909 0.271716 0.689957
v -6.253927 2.052371 0.689957
v -5.583342 2.483611 0.689956
v -6.502436 1.474950 0.689957
v -6.145728 2.171112 0.689957
v -4.014862 1.159756 0.689957
v -4.778565 2.432844 0.689956
vn 0.9976 -0.0679 -0.0156
vn 0.9792 -0.2024 -0.0155
vn 0.9429 -0.3326 -0.0155
vn 0.8899 -0.4560 -0.0154
vn 0.8213 -0.5702 -0.0154
vn 0.7391 -0.6734 -0.0153
vn 0.6449 -0.7641 -0.0152
vn 0.5408 -0.8410 -0.0151
vn 0.4287 -0.9033 -0.0151
vn 0.3105 -0.9504 -0.0150
vn 0.1880 -0.9821 -0.0150
vn 0.0629 -0.9979 -0.0150
vn -0.0629 -0.9979 -0.0150
vn -0.1880 -0.9821 -0.0150
vn -0.3105 -0.9504 -0.0150
vn -0.4287 -0.9033 -0.0151
vn -0.5408 -0.8410 -0.0151
vn -0.6449 -0.7641 -0.0152
vn -0.7391 -0.6734 -0.0153
vn -0.8213 -0.5702 -0.0154
vn -0.8899 -0.4560 -0.0154
vn -0.9429 -0.3326 -0.0155
vn -0.9792 -0.2024 -0.0155
vn -0.9976 -0.0679 -0.0156
vn -0.9976 0.0679 -0.0156
vn -0.9792 0.2024 -0.0155
vn -0.9429 0.3326 -0.0155
vn -0.8899 0.4560 -0.0154
vn -0.8213 0.5702 -0.0154
vn -0.7391 0.6735 -0.0153
vn -0.6449 0.7641 -0.0152
vn -0.5408 0.8410 -0.0151
vn -0.4287 0.9033 -0.0151
vn -0.3105 0.9504 -0.0150
vn -0.1880 0.9821 -0.0150
vn -0.0629 0.9979 -0.0150
vn 0.0629 0.9979 -0.0150
vn 0.1880 0.9821 -0.0150
vn 0.3105 0.9505 -0.0150
vn 0.4287 0.9033 -0.0151
vn 0.5408 0.8410 -0.0151
vn 0.6449 0.7641 -0.0152
vn 0.7391 0.6734 -0.0153
vn 0.8213 0.5702 -0.0154
vn 0.8899 0.4560 -0.0154
vn 0.9430 0.3326 -0.0155
vn 0.9792 0.2024 -0.0155
vn 0.9976 0.0679 -0.0156
usemtl None
s off
f 48//1 1//1 50//1 95//1
f 47//2 48//2 95//2 80//2
f 46//3 47//3 80//3 77//3
f 45//4 46//4 77//4 65//4
f 44//5 45//5 65//5 58//5
f 43//6 44//6 58//6 89//6
f 42//7 43//7 89//7 51//7
f 41//8 42//8 51//8 66//8
f 40//9 41//9 66//9 68//9
f 39//10 40//10 68//10 84//10
f 38//11 39//11 84//11 54//11
f 37//12 38//12 54//12 57//12
f 36//13 37//13 57//13 70//13
f 35//14 36//14 70//14 64//14
f 34//15 35//15 64//15 78//15
f 33//16 34//16 78//16 90//16
f 32//17 33//17 90//17 81//17
f 31//18 32//18 81//18 71//18
f 30//19 31//19 71//19 52//19
f 29//20 30//20 52//20 85//20
f 28//21 29//21 85//21 75//21
f 27//22 28//22 75//22 73//22
f 26//23 27//23 73//23 60//23
f 25//24 26//24 60//24 49//24
f 24//25 25//25 49//25 93//25
f 23//26 24//26 93//26 83//26
f 22//27 23//27 83//27 69//27
f 21//28 22//28 69//28 79//28
f 20//29 21//29 79//29 91//29
f 19//30 20//30 91//30 94//30
f 18//31 19//31 94//31 59//31
f 17//32 18//32 59//32 72//32
f 16//33 17//33 72//33 82//33
f 15//34 16//34 82//34 92//34
f 14//35 15//35 92//35 88//35
f 13//36 14//36 88//36 55//36
f 12//37 13//37 55//37 67//37
f 11//38 12//38 67//38 62//38
f 10//39 11//39 62//39 96//39
f 9//40 10//40 96//40 86//40
f 8//41 9//41 86//41 63//41
f 7//42 8//42 63//42 53//42
f 6//43 7//43 53//43 56//43
f 5//44 6//44 56//44 87//44
f 4//45 5//45 87//45 76//45
f 3//46 4//46 76//46 74//46
f 2//47 3//47 74//47 61//47
f 1//48 2//48 61//48 50//48
