# Blender v2.79 (sub 0) OBJ File: 'space cadet.blend'
# www.blender.org
mtllib STEKLO.mtl
o Plane.003
v -1.831373 2.266114 0.534384
v -0.574064 1.475815 0.539349
v -1.322661 1.542141 1.027432
v -0.572137 1.435038 0.704143
v -0.568201 1.438624 0.342361
v -1.280332 1.481958 -0.021215
v -0.775705 1.290153 0.937179
v -0.767069 1.297334 0.106247
v -1.342102 1.989443 0.534384
v -0.740415 1.588706 0.534384
v -0.811081 1.544098 0.729978
v -1.366742 1.887854 0.705105
v -1.406987 1.885413 0.327609
v -0.795596 1.548486 0.334977
v -1.044704 1.397201 0.037300
v -1.058359 1.420374 0.983819
v -1.617399 2.102550 0.644136
v -1.736850 2.096417 0.283811
v -1.528204 2.094679 0.534384
v -1.613883 2.108511 0.407652
v -1.731401 2.086044 0.754220
v -1.839206 2.250223 0.533946
v -0.582830 1.460427 0.538690
v -1.329664 1.530659 1.015892
v -0.580013 1.421515 0.695827
v -0.576133 1.424774 0.350062
v -1.287460 1.470194 -0.010043
v -0.782416 1.279233 0.924941
v -0.773623 1.285847 0.118043
v -1.351771 1.974593 0.534237
v -0.749442 1.573460 0.534065
v -0.818769 1.531362 0.720347
v -1.374772 1.875346 0.695455
v -1.415500 1.872917 0.336851
v -0.803300 1.535287 0.343948
v -1.051396 1.385506 0.048811
v -1.065109 1.409089 0.971940
v -1.625238 2.089098 0.635671
v -1.744570 2.083323 0.292922
v -1.537773 2.079768 0.533998
v -1.622230 2.094808 0.415174
v -1.738558 2.073264 0.744245
vn 0.3786 0.6162 0.6906
vn 0.3698 0.6482 -0.6656
vn 0.3809 0.6648 -0.6426
vn 0.3819 0.6460 0.6610
vn 0.4714 0.8338 0.2875
vn 0.4851 0.8449 -0.2254
vn 0.4744 0.7759 -0.4158
vn 0.4819 0.7634 0.4301
vn 0.4867 0.7499 0.4481
vn 0.5237 0.7327 -0.4346
vn 0.4381 0.6530 0.6178
vn 0.3517 0.8313 -0.4304
vn 0.4789 0.8469 -0.2313
vn 0.3572 0.7956 0.4892
vn 0.4946 0.6546 -0.5717
vn 0.4664 0.8247 0.3199
vn -0.3778 -0.6156 -0.6915
vn -0.3690 -0.6476 0.6666
vn -0.3808 -0.6645 0.6430
vn -0.3817 -0.6457 -0.6614
vn -0.4722 -0.8331 -0.2880
vn -0.4857 -0.8447 0.2251
vn -0.4728 -0.7733 0.4225
vn -0.4800 -0.7607 -0.4369
vn -0.4825 -0.7465 -0.4581
vn -0.5198 -0.7301 0.4436
vn -0.4380 -0.6527 -0.6182
vn -0.3556 -0.8279 0.4337
vn -0.4787 -0.8465 0.2331
vn -0.3616 -0.7914 -0.4929
vn -0.4948 -0.6544 0.5718
vn -0.4655 -0.8233 -0.3249
vn -0.7073 -0.1909 0.6807
vn 0.7292 -0.6396 0.2431
vn 0.8762 -0.4647 -0.1279
vn 0.8743 -0.4710 0.1175
vn -0.0598 -0.6755 -0.7350
vn -0.8132 0.2845 -0.5077
vn -0.1880 -0.6680 0.7200
vn 0.7411 -0.6207 -0.2560
vn -0.0674 -0.6880 -0.7226
vn -0.1776 -0.6515 0.7376
vn -0.6895 -0.1638 -0.7055
vn -0.8026 0.2180 0.5553
usemtl None
s off
f 7//1 4//1 11//1 16//1
f 8//2 15//2 14//2 5//2
f 15//3 6//3 13//3 14//3
f 16//4 11//4 12//4 3//4
f 4//5 2//5 10//5 11//5
f 5//6 14//6 10//6 2//6
f 10//7 14//7 13//7 9//7
f 9//8 12//8 11//8 10//8
f 9//9 19//9 17//9 12//9
f 9//10 13//10 20//10 19//10
f 3//11 12//11 17//11 21//11
f 1//12 20//12 18//12
f 20//13 1//13 19//13
f 17//14 1//14 21//14
f 20//15 13//15 6//15 18//15
f 19//16 1//16 17//16
f 28//17 37//17 32//17 25//17
f 29//18 26//18 35//18 36//18
f 36//19 35//19 34//19 27//19
f 37//20 24//20 33//20 32//20
f 25//21 32//21 31//21 23//21
f 26//22 23//22 31//22 35//22
f 31//23 30//23 34//23 35//23
f 30//24 31//24 32//24 33//24
f 30//25 33//25 38//25 40//25
f 30//26 40//26 41//26 34//26
f 24//27 42//27 38//27 33//27
f 22//28 39//28 41//28
f 41//29 40//29 22//29
f 38//30 42//30 22//30
f 41//31 39//31 27//31 34//31
f 40//32 38//32 22//32
f 3//33 21//33 42//33 24//33
f 4//34 7//34 28//34 25//34
f 2//35 4//35 25//35 23//35
f 5//36 2//36 23//36 26//36
f 6//37 15//37 36//37 27//37
f 1//38 18//38 39//38 22//38
f 7//39 16//39 37//39 28//39
f 8//40 5//40 26//40 29//40
f 15//41 8//41 29//41 36//41
f 16//42 3//42 24//42 37//42
f 18//43 6//43 27//43 39//43
f 21//44 1//44 22//44 42//44
